<svg xmlns="http://www.w3.org/2000/svg" viewBox="0 0 500 500.13"><defs><style>.cls-1{fill:#5e2d2c;}.cls-2{fill:#321408;}.cls-3{fill:#2d1c1c;}.cls-4{fill:#2d1b1b;}.cls-5{fill:#352020;}.cls-6{fill:#331d1c;}.cls-7{fill:#402220;}.cls-8{fill:#311407;}.cls-9{fill:#1c1816;}.cls-10{fill:#431e0d;}.cls-11{fill:#341609;}.cls-12{fill:#3f1b0b;}.cls-13{fill:#2d1a1a;}.cls-14{fill:#331509;}</style></defs><g id="Calque_2" data-name="Calque 2"><g id="Calque_1-2" data-name="Calque 1"><g id="Calque_2-2" data-name="Calque 2"><g id="Calque_1-2-2" data-name="Calque 1-2"><path class="cls-1" d="M.49,9.27C1.37-.77,11.57.37,17.16.13c6.06,0,187.58,0,210.44,0L231,2.77c-.12,2.93-.14,6.27-.25,9.2l-227.4.12Z"/><path class="cls-2" d="M230.58,488.3l8.75.81-5.82,11H228c-5.25-.92-10.5-2.62-15.75-2.64-62.2-.19-124.41,0-186.62-.25-5.56,0-15,1.69-14.1-8.64"/><path class="cls-3" d="M499.81,353v5.55c-.91,5.26-2.57,10.51-2.63,15.77-.44,41-.56,82-.79,123a9.32,9.32,0,0,0-1.83,0l-5.88-9.2V355.7q.24-4.72.49-9.45Z"/><path class="cls-1" d="M499.81,180.91v2.77l-3,.42-8.19-.46-94.3.11h-8.85c2.93-8.74,9.22-11.28,18.06-11.23,27.45.15,54.9-.28,82.35-.49.83.2,1.66.41,2.48.64Z"/><path class="cls-4" d="M.49,497.35l11-8.75c-.07,10.08,8.5,8.63,14.06,8.64,62.21.21,124.42.06,186.62.25,5.25,0,10.5,1.72,15.75,2.64q-108.22,0-216.45-.12C7.83,500,4.16,498.27.49,497.35Z"/><path class="cls-4" d="M494.57,497.3a8.62,8.62,0,0,1,1.83.05c.21.92.43,1.85.64,2.78H270.69c-.62-.8-1.42-1.43-2-2.31Z"/><path class="cls-5" d="M489.09,3.48l2.4-3c6.93-1.35,8.56,1.38,8.51,8.33-.36,46.26-.57,89.4-.57,135.67l-2.54,2.44a1.54,1.54,0,0,1-.53-1.44c.22-43.54.59-87.08.33-130.62,0-2.9-4.73-5.77-7.26-8.66A13.77,13.77,0,0,1,489.09,3.48Z"/><path class="cls-5" d="M497,500.13c-.21-.93-.43-1.86-.64-2.78.22-41,.34-82,.78-123,.06-5.26,1.72-10.51,2.63-15.77,0,44.41.05,88.82-.12,133.24C499.68,494.58,498,497.35,497,500.13Z"/><path class="cls-6" d="M2.77,145,0,141.33.49,8.8l2.86,2.82C3,56.23,3.12,100.34,2.77,145Z"/><path class="cls-6" d="M2.79,355.21c.17,42.6.39,85.2.38,127.8,0,2.93-1.74,5.86-3.17,11.32v-136l2.77-3"/><path class="cls-5" d="M496.57,184.13l3-.42-.78,131.57-1.12,2c-.35-5-.8-9.68-.8-14.74Q496.6,243.3,496.57,184.13Z"/><path class="cls-6" d="M2.54,183.11a12.17,12.17,0,0,1,1.25,1l.33,133.3-1,.42L0,313.57V185.92l2.57-2.79"/><path class="cls-7" d="M2.81,145l.5-133.36,227.35-.07q0,66.51-.07,133L2.77,145"/><path class="cls-4" d="M230,144.58q0-66.51.07-133c.12-2.92.24-5.84.36-8.78L242,12.23c-.07,39.12.53,76.66.18,115.78,0,5.26-1.84,12.08-2.84,17.33Z"/><path class="cls-7" d="M11.49,488.6V355.9l219.23-.14q-.09,66.27-.17,132.54Z"/><path class="cls-4" d="M239.3,489.07l-8.76-.77q.09-66.27.17-132.54c0-2.81.1-5.63.14-8.44,10,2,11.09,9.24,11.05,17.76-.19,32.21-.07,64.42-.07,96.63v22.85l17.1-.88,2.37,5.45"/><path class="cls-7" d="M488.64,355.74V488.18l-219,.09q-.08-66.21-.14-132.44Z"/><path class="cls-1" d="M488.64,355.74l-219.1.09h-8.83c4.45-8.95,11.7-11.43,21.51-11.39,68.72.31,137.44.12,206.17.09.25.8.82,1.65.74,1.77Q488.88,351,488.64,355.74Z"/><path class="cls-8" d="M261.28,489.16l8.4-.9,219-.08,5.88,9.12-225.9.52"/><path class="cls-9" d="M488.39,344.52c-68.73,0-137.45.22-206.17-.09-9.81,0-17.06,2.44-21.51,11.39-.71,2.57-2,5.15-2,7.72q0,60,.27,120.14l-17.1.88V461.71c0-32.21-.12-64.42.07-96.63,0-8.52-1.08-15.75-11-17.76-5.22-.9-10.43-2.58-15.65-2.59q-101.44-.27-202.91-.14,0-8,.08-15.92c27.52-.21,55-.54,82.55-.56,8,0,14.71-1.33,16.46-10.68,1.87-4.11,5.32-8.19,5.37-12.32.41-37.73.68-75.47-.23-113.18-.14-5.83-6.51-11.51-10-17.26-4.87-.68-9.74-1.92-14.62-2-26.53-.22-53.07-.14-79.61-.16v-16c6.9-.19,13.81-.54,20.72-.54q94-.08,188.05,0c8.27,0,16-.28,17.94-10.66.95-5.25,2.69-10.49,2.73-15.75.3-39.12.26-78.24.33-117.36l16.22.14c.09,39.47.09,79,.39,118.42,0,4.8,1.68,9.59,2.57,14.39,1.88,10.29,9.45,10.85,17.8,10.83q93.18-.15,186.36,0H481c2,6.54,3.47,11.31,4.93,16.07-27.45.21-54.9.64-82.35.49-8.84,0-15.13,2.49-18.05,11.23-.72,2.11-2,4.21-2,6.32q-.19,59.25,0,118.47c0,2.93,1.82,5.84,2.8,8.76,4.75,8.79,12.17,11.17,21.9,10.95,24.35-.55,58.09-.18,80.5-.18ZM141.53,318.65c4.18,3.13,8.34,8.94,12.56,9q95.81.87,191.63,0c4.32,0,8.6-5.54,12.9-8.5,2.69-4.6,7.62-9.15,7.7-13.79.63-37.77.79-75.56-.12-113.32-.14-5.81-6.45-11.48-9.91-17.22-3.51-.74-7-2.1-10.54-2.11-63.67-.13-127.35-.41-191,.39-6.33.08-12.58,6.93-18.85,10.63-.64,1.2-1.82,2.4-1.82,3.6-.18,40.59-.43,81.17,0,121.75C134.11,312.3,138.93,315.46,141.53,318.65Z"/><path class="cls-7" d="M394.35,183.75l94.3-.11q-.09,66.39-.19,132.78h-94Q394.42,250.08,394.35,183.75Z"/><path class="cls-10" d="M485.91,172c-1.46-4.76-2.92-9.53-4.93-16.07H279c-8.35,0-15.92-.54-17.8-10.84l8.43-.79,218.82.13,7.87,1a1.56,1.56,0,0,0,.54,1.43c-1.63,1.25-5,5.15-8.22,9.13-.21,5.62-.44,13.5-.28,16.59C487.57,172.41,486.74,172.2,485.91,172Z"/><path class="cls-6" d="M394.35,183.75q.07,66.33.13,132.64l-8.2.89c-1-2.93-2.79-5.84-2.8-8.77q-.27-59.24,0-118.47c0-2.11,1.33-4.21,2-6.32Z"/><path class="cls-3" d="M497.67,317.26l-9.21-.84q.09-66.39.19-132.78l8.19.46q.11,59.22.25,118.4l.6,14.76"/><path class="cls-1" d="M12.29,344.59q101.46,0,202.91.14c5.22,0,10.43,1.69,15.65,2.59,0,2.81-.09,5.63-.14,8.44l-219.23.14-8.71-.58Z"/><path class="cls-1" d="M260.51,11l8.14-11,224,.13c0,1.21-3.4,3.14-3.2,4.32-.26,2.34-.51,4.71-.76,7.05l-219.16.16Z"/><path class="cls-3" d="M488.67,11.55c.25-1.78.5-3.57.76-5.35,2.53,2.89,7.25,5.76,7.26,8.66.26,43.54-.11,87.08-.33,130.62l-7.88-1Q488.57,78,488.67,11.55Z"/><path class="cls-11" d="M111.38,317.44c-1.75,9.34-8.38,10.69-16.46,10.69-27.52,0-55,.35-82.55.56l-9.2-10.84h0l1-.42,7.56-1,94.08-.05Z"/><path class="cls-12" d="M239,145.31c-1.94,10.38-9.67,10.67-17.94,10.66q-94-.12-188,0c-6.91,0-13.82.35-20.72.54L2.81,145l227.82-.4Z"/><path class="cls-1" d="M12.3,172.55c26.54,0,53.08-.06,79.61.16,4.88,0,9.75,1.28,14.62,2q-.33,4.5-.65,9l-94.38.12-7.68.3a12.17,12.17,0,0,0-1.25-1Z"/><path class="cls-13" d="M3.82,184.13l7.68-.33q.11,66.33.2,132.65l-7.56,1Q4,250.78,3.82,184.13Z"/><path class="cls-6" d="M260.51,11.13l9,.52.15,132.69-8.43.79c-.89-4.79-2.53-9.58-2.57-14.38-.3-39.47-.3-78.95-.39-118.42A2.54,2.54,0,0,1,260.51,11.13Z"/><path class="cls-11" d="M408.18,328.22c-9.73.22-17.15-2.16-21.9-11l8.2-.88q47,0,94,0l9.23.84-9,10.83Z"/><path class="cls-6" d="M258.93,483.68c-.12-40-.28-80.09-.27-120.14,0-2.57,1.34-5.15,2-7.72h8.83q.08,66.24.14,132.44l-8.38.89Z"/><path class="cls-1" d="M135.88,183.73c6.28-3.7,12.53-10.55,18.86-10.63,63.66-.8,127.34-.52,191-.39,3.51,0,7,1.37,10.54,2.11-.25,3-.49,5.9-.74,8.85l-210.88.09Z"/><path class="cls-14" d="M358.62,319.13c-4.3,3-8.58,8.46-12.9,8.5q-95.82.84-191.63,0c-4.22,0-8.38-5.84-12.56-9l3.11-2.3h211Z"/><path class="cls-4" d="M358.62,319.13l-3-2.77-.06-132.71q.36-4.41.74-8.85c3.46,5.74,9.77,11.41,9.91,17.22.91,37.76.75,75.55.12,113.32C366.24,310,361.31,314.55,358.62,319.13Z"/><path class="cls-4" d="M105.88,183.66q.32-4.5.65-9c3.48,5.75,9.85,11.43,10,17.26.91,37.71.64,75.45.23,113.18,0,4.13-3.5,8.21-5.37,12.32l-5.6-1Q105.83,250,105.88,183.66Z"/><path class="cls-6" d="M144.64,316.36l-3.11,2.3c-2.6-3.2-7.42-6.36-7.46-9.58-.43-40.58-.18-81.16,0-121.75,0-1.2,1.18-2.4,1.81-3.6h8.79Z"/><path class="cls-7" d="M269.66,144.35l-.15-132.69,219.16-.11q-.09,66.47-.19,132.93Z"/><path class="cls-7" d="M105.88,183.66q0,66.36-.1,132.72l-94.08.05q-.09-66.33-.2-132.65Z"/><path class="cls-7" d="M144.64,316.36V183.76l210.88-.09.06,132.71Z"/><path class="cls-13" d="M11.49,488.6,0,497.7v-5.34c.94-2.93,3.17-6.42,3.17-9.35,0-42.6-.21-85.2-.38-127.8v.11l8.71.58V488.6"/></g></g></g></g></svg>